<svg width="41" height="45" viewBox="0 0 41 45" fill="none" xmlns="http://www.w3.org/2000/svg">
<path d="M11.3883 32.3674C17.4131 32.3674 21.7848 28.1794 21.7848 22.375C21.7848 16.6074 17.4131 12.3827 11.3883 12.3827C5.36354 12.3827 1.02862 16.6074 1.02862 22.375C1.02862 28.1794 5.36354 32.3674 11.3883 32.3674ZM11.3883 27.6651C8.3392 27.6651 6.09827 25.4242 6.09827 22.375C6.09827 19.3259 8.3392 17.085 11.3883 17.085C14.4742 17.085 16.7151 19.3259 16.7151 22.375C16.7151 25.4242 14.4742 27.6651 11.3883 27.6651Z" fill="#FE682D"/>
<path d="M29.0979 32.3674C35.1227 32.3674 39.4944 28.1794 39.4944 22.375C39.4944 16.6074 35.1227 12.3827 29.0979 12.3827C23.0731 12.3827 18.7382 16.6074 18.7382 22.375C18.7382 28.1794 23.0731 32.3674 29.0979 32.3674ZM29.0979 27.6651C26.0488 27.6651 23.8079 25.4242 23.8079 22.375C23.8079 19.3259 26.0488 17.085 29.0979 17.085C32.1838 17.085 34.4247 19.3259 34.4247 22.375C34.4247 25.4242 32.1838 27.6651 29.0979 27.6651Z" fill="#81DCDD"/>
<path d="M8.51019 35.068C9.18093 36.3083 10.164 37.4353 11.4034 38.3846C12.6428 39.3339 14.1141 40.087 15.7334 40.6007C17.3527 41.1145 19.0883 41.3789 20.841 41.3789C22.5938 41.3789 24.3293 41.1145 25.9486 40.6007C27.5679 40.087 29.0393 39.3339 30.2787 38.3846C31.518 37.4353 32.5011 36.3083 33.1719 35.068" stroke="#2860FF" stroke-width="5.58298" stroke-linecap="round" stroke-linejoin="round"/>
</svg>
