<svg width="147" height="141" viewBox="0 0 147 141" fill="none" xmlns="http://www.w3.org/2000/svg">
<path d="M52.5443 118.484C58.9127 125.243 66.3908 132.919 69.3338 135.912L80.9193 128.677L84.4869 140.406L104.277 133.414L99.3594 116.086L122.48 107.552L114.62 87.2308C118.077 91.3342 125.963 96.3448 134.115 94.3798C142.513 92.3555 148.36 79.7454 146.188 70.7354C142.814 56.7383 134.969 41.5976 127.862 28.5003L113.815 37.8103C113.413 37.1666 111.751 34.161 108.316 27.2872C104.024 18.6951 99.1499 16.908 92.6828 17.7265C87.5091 18.3813 82.416 27.3595 80.5162 31.7668L64.3582 1.59783L44.0374 9.45796L50.0168 25.0485C46.2531 22.7468 36.6884 19.5229 28.54 25.0414C20.3916 30.56 25.1691 52.0188 28.5763 62.0583L22.3529 54.6723L3.57542 65.863C6.083 72.17 11.648 85.8364 13.8474 90.0455C16.0468 94.2547 20.9036 109.079 23.0571 115.965L43.3779 108.105C43.7799 108.749 46.1759 111.726 52.5443 118.484Z" fill="#81DCDD"/>
<rect x="12.8661" y="58.8542" width="83.0106" height="82.9758" rx="5.16735" transform="rotate(-32 12.8661 58.8542)" fill="white" stroke="#C2BCB9" stroke-width="6"/>
<rect x="32.625" y="63.7871" width="24.346" height="5.42083" rx="2.71042" transform="rotate(-32 32.625 63.7871)" fill="#FF8533"/>
<rect x="51.0117" y="93.209" width="24.346" height="5.42083" rx="2.71042" transform="rotate(-32 51.0117 93.209)" fill="#FF8533"/>
<rect x="39.5195" y="74.8203" width="47.4107" height="5.42083" rx="2.71042" transform="rotate(-32 39.5195 74.8203)" fill="#FF8533"/>
<rect x="57.9062" y="104.242" width="47.4107" height="5.42083" rx="2.71042" transform="rotate(-32 57.9062 104.242)" fill="#FF8533"/>
<path d="M126.984 26.9826L116.851 34.0763" stroke="#FFA600" stroke-width="8.12755" stroke-linecap="round" stroke-linejoin="round"/>
<path d="M106.953 4.29297L102.046 25.1956" stroke="#FFA600" stroke-width="8.12755" stroke-linecap="round" stroke-linejoin="round"/>
<path d="M138.496 55.9358L121.053 52.1128" stroke="#FFA600" stroke-width="8.12755" stroke-linecap="round" stroke-linejoin="round"/>
</svg>
